<mxfile host="app.diagrams.net" modified="2024-02-06T09:21:31.395Z" agent="Mozilla/5.0 (Windows NT 10.0; Win64; x64) AppleWebKit/537.36 (KHTML, like Gecko) Chrome/121.0.0.0 Safari/537.36" etag="REFGmvYWAPRB_1GuLgSc" version="23.1.1" type="github">
  <diagram name="Page-1" id="2vugY1HEAnYX5uprdd2u">
    <mxGraphModel dx="880" dy="468" grid="1" gridSize="10" guides="1" tooltips="1" connect="1" arrows="1" fold="1" page="1" pageScale="1" pageWidth="850" pageHeight="1100" math="0" shadow="0">
      <root>
        <mxCell id="0" />
        <mxCell id="1" parent="0" />
        <mxCell id="UhrWUVNZwqdm1D_5aJh4-1" value="PERPUS DIGITAL" style="rounded=0;whiteSpace=wrap;html=1;verticalAlign=top;" vertex="1" parent="1">
          <mxGeometry x="290" y="20" width="260" height="560" as="geometry" />
        </mxCell>
        <mxCell id="UhrWUVNZwqdm1D_5aJh4-4" value="isi data kunjungan" style="ellipse;whiteSpace=wrap;html=1;" vertex="1" parent="1">
          <mxGeometry x="350" y="70" width="140" height="70" as="geometry" />
        </mxCell>
        <mxCell id="UhrWUVNZwqdm1D_5aJh4-5" value="cari buku" style="ellipse;whiteSpace=wrap;html=1;" vertex="1" parent="1">
          <mxGeometry x="345" y="160" width="160" height="70" as="geometry" />
        </mxCell>
        <mxCell id="UhrWUVNZwqdm1D_5aJh4-6" value="rincian buku" style="ellipse;whiteSpace=wrap;html=1;" vertex="1" parent="1">
          <mxGeometry x="350" y="260" width="150" height="70" as="geometry" />
        </mxCell>
        <mxCell id="UhrWUVNZwqdm1D_5aJh4-7" value="riwayat kunjungan" style="ellipse;whiteSpace=wrap;html=1;" vertex="1" parent="1">
          <mxGeometry x="353" y="360" width="145" height="70" as="geometry" />
        </mxCell>
        <mxCell id="UhrWUVNZwqdm1D_5aJh4-9" value="pengunjung" style="shape=umlActor;verticalLabelPosition=bottom;verticalAlign=top;html=1;outlineConnect=0;" vertex="1" parent="1">
          <mxGeometry x="70" y="120" width="90" height="160" as="geometry" />
        </mxCell>
        <mxCell id="UhrWUVNZwqdm1D_5aJh4-12" value="pustakawan" style="shape=umlActor;verticalLabelPosition=bottom;verticalAlign=top;html=1;outlineConnect=0;" vertex="1" parent="1">
          <mxGeometry x="690" y="100" width="100" height="160" as="geometry" />
        </mxCell>
        <mxCell id="UhrWUVNZwqdm1D_5aJh4-14" value="" style="endArrow=none;html=1;rounded=0;entryX=-0.004;entryY=0.159;entryDx=0;entryDy=0;entryPerimeter=0;" edge="1" parent="1" source="UhrWUVNZwqdm1D_5aJh4-9" target="UhrWUVNZwqdm1D_5aJh4-1">
          <mxGeometry width="50" height="50" relative="1" as="geometry">
            <mxPoint x="180" y="170" as="sourcePoint" />
            <mxPoint x="250" y="120" as="targetPoint" />
            <Array as="points">
              <mxPoint x="220" y="110" />
            </Array>
          </mxGeometry>
        </mxCell>
        <mxCell id="UhrWUVNZwqdm1D_5aJh4-15" value="" style="endArrow=none;html=1;rounded=0;entryX=0.012;entryY=0.304;entryDx=0;entryDy=0;entryPerimeter=0;" edge="1" parent="1" target="UhrWUVNZwqdm1D_5aJh4-1">
          <mxGeometry width="50" height="50" relative="1" as="geometry">
            <mxPoint x="170" y="180" as="sourcePoint" />
            <mxPoint x="270" y="220" as="targetPoint" />
          </mxGeometry>
        </mxCell>
        <mxCell id="UhrWUVNZwqdm1D_5aJh4-17" value="" style="endArrow=none;html=1;rounded=0;" edge="1" parent="1">
          <mxGeometry width="50" height="50" relative="1" as="geometry">
            <mxPoint x="170" y="200" as="sourcePoint" />
            <mxPoint x="290" y="260" as="targetPoint" />
          </mxGeometry>
        </mxCell>
        <mxCell id="UhrWUVNZwqdm1D_5aJh4-19" value="" style="endArrow=none;html=1;rounded=0;exitX=0.996;exitY=0.291;exitDx=0;exitDy=0;exitPerimeter=0;" edge="1" parent="1" source="UhrWUVNZwqdm1D_5aJh4-1">
          <mxGeometry width="50" height="50" relative="1" as="geometry">
            <mxPoint x="610" y="250" as="sourcePoint" />
            <mxPoint x="690" y="197" as="targetPoint" />
          </mxGeometry>
        </mxCell>
        <mxCell id="UhrWUVNZwqdm1D_5aJh4-20" value="" style="endArrow=none;html=1;rounded=0;exitX=1.012;exitY=0.143;exitDx=0;exitDy=0;exitPerimeter=0;" edge="1" parent="1" source="UhrWUVNZwqdm1D_5aJh4-1">
          <mxGeometry width="50" height="50" relative="1" as="geometry">
            <mxPoint x="570" y="170" as="sourcePoint" />
            <mxPoint x="680" y="140" as="targetPoint" />
            <Array as="points">
              <mxPoint x="640" y="90" />
            </Array>
          </mxGeometry>
        </mxCell>
        <mxCell id="UhrWUVNZwqdm1D_5aJh4-21" value="" style="endArrow=none;html=1;rounded=0;exitX=1;exitY=0.475;exitDx=0;exitDy=0;exitPerimeter=0;" edge="1" parent="1" source="UhrWUVNZwqdm1D_5aJh4-1">
          <mxGeometry width="50" height="50" relative="1" as="geometry">
            <mxPoint x="580" y="300" as="sourcePoint" />
            <mxPoint x="680" y="210" as="targetPoint" />
          </mxGeometry>
        </mxCell>
        <mxCell id="UhrWUVNZwqdm1D_5aJh4-22" value="" style="endArrow=none;html=1;rounded=0;exitX=0.992;exitY=0.634;exitDx=0;exitDy=0;exitPerimeter=0;" edge="1" parent="1" source="UhrWUVNZwqdm1D_5aJh4-1">
          <mxGeometry width="50" height="50" relative="1" as="geometry">
            <mxPoint x="580" y="380" as="sourcePoint" />
            <mxPoint x="680" y="230" as="targetPoint" />
          </mxGeometry>
        </mxCell>
      </root>
    </mxGraphModel>
  </diagram>
</mxfile>
